<svg width="78" height="78" viewBox="0 0 78 78" fill="none" xmlns="http://www.w3.org/2000/svg">
<path fill-rule="evenodd" clip-rule="evenodd" d="M38.5243 0C59.8029 0 77.0485 17.2456 77.0485 38.5243C77.0485 59.8029 59.8029 77.0485 38.5243 77.0485C17.2456 77.0485 0 59.8029 0 38.5243C0 17.2456 17.2456 0 38.5243 0Z" fill="#090F3A"/>
<path d="M24.484 29.751C32.234 22.1816 44.8146 22.1816 52.5646 29.751L53.4976 30.6689C53.8888 31.0451 53.8888 31.6621 53.4976 32.0384L50.3073 35.1534C50.1117 35.349 49.7956 35.349 49.6 35.1534L48.3209 33.9044C42.9034 28.6223 34.1451 28.6223 28.7277 33.9044L27.3583 35.2437C27.1626 35.4393 26.8466 35.4393 26.651 35.2437L23.4607 32.1286C23.0694 31.7524 23.0694 31.1354 23.4607 30.7592L24.484 29.751ZM59.1709 36.1918L62.0151 38.9607C62.4063 39.3369 62.4063 39.9539 62.0151 40.3301L49.2087 52.8354C48.8175 53.2117 48.1854 53.2117 47.8092 52.8354L38.7199 43.9568C38.6296 43.8665 38.4641 43.8665 38.3738 43.9568L29.2845 52.8354C28.8932 53.2117 28.2612 53.2117 27.885 52.8354L15.0335 40.3301C14.6422 39.9539 14.6422 39.3369 15.0335 38.9607L17.8777 36.1918C18.2689 35.8155 18.901 35.8155 19.2772 36.1918L28.3665 45.0704C28.4568 45.1607 28.6223 45.1607 28.7126 45.0704L37.8019 36.1918C38.1932 35.8155 38.8252 35.8155 39.2015 36.1918L48.2908 45.0704C48.3811 45.1607 48.5466 45.1607 48.6369 45.0704L57.7262 36.1918C58.1476 35.8155 58.7796 35.8155 59.1709 36.1918Z" fill="white"/>
</svg>
