<svg width="77" height="77" viewBox="0 0 77 77" fill="none" xmlns="http://www.w3.org/2000/svg">
<path d="M38.5 77C59.763 77 77 59.763 77 38.5C77 17.237 59.763 0 38.5 0C17.237 0 0 17.237 0 38.5C0 59.763 17.237 77 38.5 77Z" fill="#090F3A"/>
<path d="M62.5426 48.1115V47.5096H62.3926L62.219 47.9227L62.0465 47.5096H61.896V48.1115H62.0026V47.6581L62.1648 48.0493H62.2752L62.4374 47.6571V48.1115H62.543H62.5426ZM61.591 48.1115V47.6127H61.783V47.5111H61.2924V47.6127H61.4844V48.1115H61.59H61.591Z" fill="#F79410"/>
<path d="M45.4937 50.6931H32.513V26.3145H45.4939L45.4937 50.6931Z" fill="#FF5F00"/>
<path d="M33.336 38.5042C33.336 33.559 35.5517 29.1537 39.0019 26.3148C36.3903 24.1628 33.16 22.9948 29.8342 22.9999C21.6413 22.9999 15 29.9413 15 38.5042C15 47.067 21.6413 54.0084 29.8342 54.0084C33.1601 54.0136 36.3904 52.8456 39.0022 50.6935C35.5522 47.8551 33.336 43.4496 33.336 38.5042Z" fill="#EB001B"/>
<path d="M63.006 38.5043C63.006 47.0672 56.3647 54.0085 48.1718 54.0085C44.8455 54.0136 41.6149 52.8457 39.0026 50.6936C42.4538 47.8547 44.6695 43.4497 44.6695 38.5043C44.6695 33.5588 42.4538 29.1539 39.0026 26.315C41.6148 24.163 44.8454 22.995 48.1716 23C56.3645 23 63.0058 29.9414 63.0058 38.5043" fill="#F79E1B"/>
</svg>
