<svg width="77" height="77" viewBox="0 0 77 77" fill="none" xmlns="http://www.w3.org/2000/svg">
<path d="M38.5 77C59.763 77 77 59.763 77 38.5C77 17.237 59.763 0 38.5 0C17.237 0 0 17.237 0 38.5C0 59.763 17.237 77 38.5 77Z" fill="#090F3A"/>
<path d="M58 35.2376V29.7128H41.5075C36.6944 29.7128 34.0018 32.6099 34.0018 36.8209V40.3582H26.8326V32.6099C26.8326 27.1862 27.3711 24.5922 33.4969 24.5922H57.9663V19H29.8618C23.7024 19 20 23.1099 20 29.1064V57H26.8326V45.883H34.0018V57H40.868V45.883H57.9663V40.3582H40.868V38.5053C40.868 36.2145 41.2383 35.2376 44.4358 35.2376H58Z" fill="white"/>
</svg>
