<svg width="77" height="77" viewBox="0 0 77 77" fill="none" xmlns="http://www.w3.org/2000/svg">
<path d="M38.5 77C59.763 77 77 59.763 77 38.5C77 17.237 59.763 0 38.5 0C17.237 0 0 17.237 0 38.5C0 59.763 17.237 77 38.5 77Z" fill="#090F3A"/>
<path fill-rule="evenodd" clip-rule="evenodd" d="M36.1268 26.8861H47.973C54.3334 26.8861 56.7277 30.1061 56.3577 34.8366C55.7462 42.6464 51.0248 46.9672 44.7623 46.9672H41.6004C40.7411 46.9672 40.1632 47.536 39.9308 49.0771L38.5884 58.0367C38.4997 58.6177 38.1939 58.9541 37.7352 59H30.2924C29.5921 59 29.3444 58.4648 29.5279 57.3059L34.0658 28.5832C34.2431 27.4335 34.8731 26.8861 36.1268 26.8861Z" fill="#009EE3"/>
<path fill-rule="evenodd" clip-rule="evenodd" d="M28.7176 17H40.576C43.9152 17 47.8783 17.107 50.5264 19.4463C52.2969 21.0089 53.2265 23.4949 53.0124 26.1736C52.2847 35.228 46.8692 40.301 39.6036 40.301H33.757C32.7601 40.301 32.1026 40.9615 31.8213 42.7474L30.1884 53.1441C30.0814 53.8169 29.7909 54.2144 29.2711 54.2633H21.9535C21.1432 54.2633 20.8558 53.6518 21.0668 52.3002L26.3263 18.9754C26.5373 17.636 27.2743 17 28.7176 17Z" fill="#113984"/>
<path fill-rule="evenodd" clip-rule="evenodd" d="M31.9926 41.6924L34.0627 28.5832C34.2432 27.4335 34.8731 26.8831 36.1268 26.8831H47.973C49.9331 26.8831 51.5202 27.1888 52.7617 27.7546C51.5722 35.8151 46.3585 40.2919 39.5333 40.2919H33.6958C32.913 40.2949 32.3381 40.6863 31.9926 41.6924Z" fill="#172C70"/>
</svg>
