<svg width="77" height="77" viewBox="0 0 77 77" fill="none" xmlns="http://www.w3.org/2000/svg">
<path d="M38.5 77C59.763 77 77 59.763 77 38.5C77 17.237 59.763 0 38.5 0C17.237 0 0 17.237 0 38.5C0 59.763 17.237 77 38.5 77Z" fill="#090F3A"/>
<path d="M51.7791 41.011C50.6029 47.2436 45.1343 51.9563 38.5608 51.9563C31.1283 51.9563 25.1046 45.9326 25.1046 38.5001C25.1046 31.0675 31.1283 25.0438 38.5608 25.0438C45.1343 25.0438 50.6029 29.7592 51.7791 35.9891H65.357C64.0909 22.3029 52.5774 11.5876 38.5608 11.5876C23.6958 11.5876 11.6483 23.6377 11.6483 38.5001C11.6483 53.3651 23.6984 65.4125 38.5608 65.4125C52.5774 65.4125 64.0909 54.6972 65.357 41.011H51.7791Z" fill="white"/>
</svg>
