<svg width="77" height="77" viewBox="0 0 77 77" fill="none" xmlns="http://www.w3.org/2000/svg">
<path d="M38.5 77C59.763 77 77 59.763 77 38.5C77 17.237 59.763 0 38.5 0C17.237 0 0 17.237 0 38.5C0 59.763 17.237 77 38.5 77Z" fill="#090F3A"/>
<path d="M37.6141 18.6221C44.4898 23.9491 52.375 23.6204 54.6275 23.6204C54.1355 53.9176 50.3805 49.8813 37.6141 58.3764C24.8476 49.8824 21.1158 53.9176 20.626 23.6204C22.8521 23.6204 30.7383 23.9491 37.6141 18.6221Z" fill="white"/>
<path d="M37.6141 18.6221L38.6069 17.3392C38.3226 17.1193 37.9734 17 37.6141 17C37.2547 17 36.9055 17.1193 36.6213 17.3392L37.6141 18.6221ZM54.6275 23.6203L56.2513 23.6468C56.2547 23.4314 56.2152 23.2176 56.1351 23.0176C56.055 22.8177 55.9359 22.6357 55.7848 22.4822C55.6337 22.3287 55.4535 22.2068 55.2549 22.1236C55.0562 22.0404 54.8429 21.9976 54.6275 21.9976V23.6203ZM37.6141 58.3764L36.715 59.7277C36.9813 59.9053 37.2941 60 37.6141 60C37.9341 60 38.2469 59.9053 38.5131 59.7277L37.6141 58.3764ZM20.626 23.6203V21.9976C20.4107 21.9978 20.1976 22.0407 19.999 22.124C19.8005 22.2072 19.6205 22.3291 19.4695 22.4826C19.3185 22.636 19.1995 22.818 19.1195 23.0179C19.0394 23.2177 18.9999 23.4315 19.0033 23.6468L20.626 23.6203ZM36.6213 19.905C43.9868 25.6115 52.4147 25.2441 54.6286 25.2441V21.9976C52.3386 21.9976 44.9951 22.2867 38.6091 17.3392L36.6213 19.905ZM53.0059 23.5939C52.8846 31.1326 52.5647 36.4508 51.9547 40.39C51.3513 44.2884 50.4897 46.6237 49.38 48.2652C48.2559 49.9695 46.8428 50.9811 44.7568 52.2298C42.6487 53.4918 39.9869 54.8519 36.7161 57.0251L38.5142 59.7277C41.6261 57.6539 44.2207 56.3323 46.4236 55.0152C48.6442 53.6837 50.5967 52.2188 52.0694 50.0831C53.5564 47.8835 54.5227 45.0176 55.1581 40.8864C55.7891 36.796 56.1245 31.2572 56.2491 23.6468L53.0059 23.5939ZM38.5131 57.0251C35.2424 54.8519 32.5816 53.4951 30.4769 52.2298C28.3898 50.9822 26.9822 49.9706 25.8614 48.2663C24.7583 46.6259 23.8957 44.2951 23.2945 40.3911C22.6855 36.4508 22.3678 31.1326 22.2454 23.5939L19 23.6468C19.1247 31.2584 19.4578 36.796 20.0866 40.8853C20.7231 45.0165 21.6872 47.8824 23.1753 50.082C24.6436 52.2177 26.595 53.6837 28.8134 55.0152C31.013 56.3312 33.6064 57.6539 36.7195 59.7277L38.5131 57.0251ZM20.6227 25.2441C22.8146 25.2441 31.2424 25.6115 38.6036 19.905L36.618 17.3392C30.2309 22.2867 22.8874 21.9976 20.6227 21.9976V25.2441Z" fill="#3375BB"/>
</svg>
