<svg width="77" height="77" viewBox="0 0 77 77" fill="none" xmlns="http://www.w3.org/2000/svg">
<path d="M38.5 77C59.763 77 77 59.763 77 38.5C77 17.237 59.763 0 38.5 0C17.237 0 0 17.237 0 38.5C0 59.763 17.237 77 38.5 77Z" fill="#090F3A"/>
<g clip-path="url(#clip0_104_332)">
<path d="M46.696 41.0486C43.8462 41.1397 42.0653 41.6397 42.0653 43.4897C42.0653 44.6883 43.0418 45.9765 45.504 45.9765C48.803 45.9765 50.5689 44.2177 50.5689 41.3221V41.0037L46.6968 41.0493L46.696 41.0486ZM53.7281 44.8692L53.8363 47.4464H50.9091C50.8318 46.7942 50.801 46.1427 50.801 45.5052C49.2213 47.4155 47.3307 47.9611 44.7138 47.9611C40.8417 47.9611 38.7664 45.9596 38.7664 43.6397C38.7664 40.2736 41.5853 39.0912 46.503 38.9853C47.8423 38.9559 49.3445 38.9559 50.5839 38.9559V38.6221C50.5839 36.378 49.1117 35.4603 46.5578 35.4603C44.668 35.4603 43.2589 36.2339 43.1192 37.553H39.8052C40.1612 34.2478 43.708 33.4133 46.8207 33.4133C50.5764 33.4133 53.7131 34.7169 53.7131 38.5839V44.8758L53.7281 44.8692Z" fill="#F5AF02"/>
<path d="M19.4518 39.4117C19.3279 36.5308 17.1984 35.4543 14.93 35.4543C12.4828 35.4543 10.5156 36.6676 10.1753 39.4117H19.4518ZM10.113 41.4588C10.2835 44.2639 12.2507 45.9161 14.9608 45.9161C16.8349 45.9161 18.5076 45.1808 19.065 43.536H22.3174C21.6827 46.8411 18.0885 47.9624 15.0066 47.9624C9.38441 47.9624 6.90643 44.9301 6.90643 40.8521C6.90643 36.3492 9.47755 33.3926 15.069 33.3926C19.5141 33.3926 22.7665 35.6668 22.7665 40.6404V41.4595L10.113 41.4588Z" fill="#E53238"/>
<path d="M30.8367 45.8552C33.7638 45.8552 35.7618 43.7934 35.7618 40.6846C35.7618 37.5758 33.7638 35.514 30.8367 35.514C27.9245 35.514 25.9115 37.5758 25.9115 40.6846C25.9115 43.7934 27.9245 45.8552 30.8367 45.8552ZM22.7658 27.978H25.9093V35.7258C27.4581 33.9213 29.58 33.4059 31.6704 33.4059C35.1857 33.4059 39.0743 35.7258 39.0743 40.7294C39.0743 44.9206 35.9766 47.9772 31.6081 47.9772C29.3156 47.9772 27.1787 47.1736 25.8469 45.5816C25.8469 46.2184 25.8169 46.8552 25.7388 47.4618H22.6418L22.75 44.278V27.978H22.7658Z" fill="#0064D2"/>
<path d="M69.7587 33.9074L60.0158 52.6324H56.4855L59.2887 47.4317L51.963 33.9074H55.6495L61.0396 44.4751L66.4139 33.9074H69.7587Z" fill="#86B817"/>
</g>
<defs>
<clipPath id="clip0_104_332">
<rect width="70" height="25" fill="white" transform="translate(4 28)"/>
</clipPath>
</defs>
</svg>
