<svg width="77" height="77" viewBox="0 0 77 77" fill="none" xmlns="http://www.w3.org/2000/svg">
<path fill-rule="evenodd" clip-rule="evenodd" d="M38.5 0C59.7652 0 77 17.2348 77 38.5C77 59.7652 59.7652 77 38.5 77C17.2348 77 0 59.7652 0 38.5C0 17.2348 17.2348 0 38.5 0Z" fill="#090F3A"/>
<path d="M27.7497 25.0711C23.3365 25.5812 19.5501 27.936 17.1846 31.6339C16.2819 33.0366 15.5046 34.9918 15.1535 36.7515C14.9362 37.8481 14.9362 41.0955 15.1535 42.1921C16.0479 46.6891 18.8313 50.3956 22.7764 52.3848C24.4314 53.2179 25.961 53.6684 27.85 53.8725C28.3766 53.932 32.1463 53.966 38.5238 53.966C46.8488 53.966 48.5372 53.949 49.3731 53.8385C52.8418 53.3794 55.667 51.9597 58.0074 49.486C59.0773 48.3553 59.7626 47.3862 60.4313 46.0601C61.5096 43.9093 61.9609 41.9626 61.9609 39.4718C61.9609 36.981 61.5096 35.0343 60.4313 32.8835C59.7626 31.5574 59.0773 30.5883 58.0074 29.4577C55.667 26.9839 52.8418 25.5642 49.3731 25.1052C48.5372 24.9946 46.8823 24.9776 38.3817 24.9861C32.8818 24.9946 28.0924 25.0286 27.7497 25.0711ZM48.8047 34.8643C50.4931 35.3318 51.8723 36.6835 52.2818 38.2817C52.4406 38.9277 52.4406 40.0159 52.2818 40.6619C51.8639 42.2856 50.4764 43.6373 48.7629 44.0793C48.228 44.2239 47.4841 44.2324 38.4486 44.2324C29.3629 44.2324 28.6775 44.2239 28.1677 44.0793C26.5043 43.6203 25.3592 42.6087 24.7658 41.0785C24.5652 40.5514 24.5401 40.3814 24.5401 39.4718C24.5401 38.5622 24.5652 38.3922 24.7658 37.8651C25.4261 36.1564 26.8387 35.0428 28.711 34.7623C28.9868 34.7198 33.5004 34.6943 38.7411 34.7028C47.4841 34.7198 48.3116 34.7283 48.8047 34.8643Z" fill="white"/>
</svg>
