<svg width="40" height="40" viewBox="0 0 40 40" fill="none" xmlns="http://www.w3.org/2000/svg">
<path d="M10.9589 17.6027C12.1694 17.6027 13.1506 16.6215 13.1506 15.411C13.1506 14.2005 12.1694 13.2191 10.9589 13.2191C9.74839 13.2191 8.76709 14.2005 8.76709 15.411C8.76709 16.6215 9.74839 17.6027 10.9589 17.6027Z" fill="white"/>
<path fill-rule="evenodd" clip-rule="evenodd" d="M36.5675 35.6392H34.1707C33.1435 35.6392 32.1164 35.1599 31.4316 34.2694L24.5152 26.1873H14.9283L8.14881 34.2009C7.53251 35.0914 6.43686 35.7078 5.3412 35.7078H3.42392C2.46522 35.7078 1.575 35.2968 0.958695 34.6119C0.34239 33.927 0 33.0365 0 32.0776L1.36958 14.1096C1.64349 9.0411 5.82066 5 10.9565 5H28.487C33.6229 5 37.8001 8.9726 38.074 14.1096L39.9914 32.0776C40.0599 33.0365 39.7175 33.927 39.0327 34.6119C38.3479 35.2968 37.5261 35.6392 36.5675 35.6392ZM29.0411 19.7945C28.2239 19.7945 27.6712 19.1259 27.6712 18.3086V16.7809H26.1435C25.3263 16.7809 24.6575 16.2283 24.6575 15.411C24.6575 14.5938 25.3263 14.0411 26.1435 14.0411H27.6712V12.5134C27.6712 11.6961 28.2239 11.0274 29.0411 11.0274C29.8584 11.0274 30.411 11.6961 30.411 12.5134V14.0411H31.9388C32.756 14.0411 33.4246 14.5938 33.4246 15.411C33.4246 16.2283 32.756 16.7809 31.9388 16.7809H30.411V18.3086C30.411 19.1259 29.8584 19.7945 29.0411 19.7945ZM10.9589 19.7945C8.53229 19.7945 6.57534 17.8376 6.57534 15.411C6.57534 12.9844 8.53229 11.0274 10.9589 11.0274C13.3855 11.0274 15.3425 12.9844 15.3425 15.411C15.3425 17.8376 13.3855 19.7945 10.9589 19.7945Z" fill="white"/>
</svg>
