<svg width="40" height="40" viewBox="0 0 40 40" fill="none" xmlns="http://www.w3.org/2000/svg">
<g clip-path="url(#clip0_17_769)">
<path d="M36.5931 8.3767C33.2347 10.08 24.2489 14.6114 21.0854 16.2064C20.3782 16.563 19.5473 16.5615 18.8401 16.205C13.6859 13.6071 8.54137 10.9886 3.3938 8.3767C8.92515 5.58021 14.4799 2.828 19.9957 0C25.5193 2.81026 31.0606 5.58477 36.5931 8.3767Z" fill="white"/>
<path d="M17.2029 18.5934C18.0484 19.0184 18.5824 19.8834 18.5849 20.8296C18.6024 27.2169 18.7147 33.6165 18.5783 40C12.9381 37.1387 7.3034 34.2659 1.6665 31.398V10.7018C6.84314 13.3355 12.014 15.9846 17.2029 18.5934Z" fill="white"/>
<path d="M38.3332 10.7018C38.3332 17.6046 38.2886 24.5089 38.3332 31.4115C32.7016 34.2466 26.9222 36.919 21.417 40C21.417 33.6061 21.4246 27.202 21.4257 20.8126C21.426 19.8681 21.9582 19.0044 22.8015 18.5791C27.8907 16.0131 32.9715 13.4295 38.0544 10.8505C38.0769 10.839 38.3332 10.7018 38.3332 10.7018Z" fill="white"/>
</g>
<defs>
<clipPath id="clip0_17_769">
<rect width="40" height="40" fill="white"/>
</clipPath>
</defs>
</svg>
