<svg width="40" height="40" viewBox="0 0 40 40" fill="none" xmlns="http://www.w3.org/2000/svg">
<g clip-path="url(#clip0_17_781)">
<path fill-rule="evenodd" clip-rule="evenodd" d="M2.61775 8.19846L19.2457 0.17213C19.7211 -0.0573766 20.2786 -0.0573766 20.7541 0.17213L37.3819 8.19846C37.9643 8.4796 38.3332 9.06019 38.3332 9.69595V30.304C38.3332 30.9398 37.9643 31.5204 37.3819 31.8015L20.7541 39.8279C20.2786 40.0574 19.7211 40.0574 19.2457 39.8279L2.61775 31.8015C2.03532 31.5204 1.6665 30.9398 1.6665 30.304V9.69595C1.6665 9.06019 2.0353 8.4796 2.61775 8.19846ZM36.7008 10.1312C36.5997 9.93793 36.4386 9.79225 36.2498 9.70449L30.3274 6.8748C29.8391 6.64147 29.2453 6.83063 29.0012 7.29726C28.7569 7.7639 28.9549 8.33132 29.4432 8.56464L33.6062 10.5537L29.4432 12.5427C28.9549 12.776 28.7569 13.3435 29.0012 13.8101C29.2453 14.2768 29.8391 14.4659 30.3274 14.2325L34.8281 12.0821V17.1663C34.8281 17.688 35.2707 18.1109 35.8167 18.1109C36.3626 18.1109 36.8052 17.688 36.8052 17.1663V10.5727C36.8077 10.4557 36.7876 10.3368 36.7419 10.2211C36.7336 10.2001 36.7246 10.1793 36.7148 10.159C36.7103 10.1497 36.7057 10.1404 36.7008 10.1312ZM36.7148 29.8414C36.7792 29.7076 36.8082 29.5664 36.8052 29.4277V22.8341C36.8052 22.3124 36.3626 21.8895 35.8167 21.8895C35.2707 21.8895 34.8281 22.3124 34.8281 22.8341V27.9183L30.3274 25.7679C29.8391 25.5345 29.2453 25.7236 29.0012 26.1903C28.7569 26.6569 28.9549 27.2244 29.4432 27.4576L33.6062 29.4468L29.4432 31.4357C28.9549 31.669 28.7569 32.2365 29.0012 32.7031C29.2453 33.1698 29.8391 33.3589 30.3274 33.1256L36.2498 30.2959C36.3457 30.2512 36.4344 30.1917 36.5177 30.1128C36.5997 30.0339 36.6663 29.942 36.7148 29.8414ZM10.5564 31.4357L6.39352 29.4468L10.5564 27.4576C11.0448 27.2244 11.2427 26.6569 10.9985 26.1903C10.7544 25.7236 10.1606 25.5345 9.67225 25.7679L5.1716 27.9183V22.8341C5.1716 22.3124 4.72902 21.8895 4.18305 21.8895C3.63709 21.8895 3.1945 22.3124 3.1945 22.8341V29.4277C3.19194 29.5448 3.21217 29.6635 3.25778 29.7793C3.26607 29.8003 3.27512 29.821 3.28492 29.8414C3.2894 29.8506 3.29405 29.8599 3.29887 29.8691C3.4 30.0625 3.56113 30.2081 3.74989 30.2959L9.67225 33.1256C10.1606 33.3589 10.7544 33.1698 10.9985 32.7031C11.2427 32.2365 11.0448 31.669 10.5564 31.4357ZM5.1716 17.1663V12.0821L9.67225 14.2325C10.1606 14.4659 10.7544 14.2768 10.9985 13.8101C11.2427 13.3435 11.0448 12.776 10.5564 12.5427L6.39352 10.5537L10.5564 8.56464C11.0448 8.33132 11.2427 7.7639 10.9985 7.29726C10.7544 6.83063 10.1606 6.64147 9.67225 6.8748L3.74989 9.70449C3.65402 9.74906 3.56527 9.80857 3.48203 9.8876C3.40002 9.96645 3.33334 10.0584 3.28492 10.159C3.22044 10.2928 3.19147 10.434 3.1945 10.5727V17.1663C3.1945 17.688 3.63709 18.1109 4.18305 18.1109C4.72902 18.1109 5.1716 17.688 5.1716 17.1663ZM19.9998 2.05181C19.8338 2.05181 19.6773 2.09092 19.5399 2.16004L13.6264 4.9855C13.1382 5.21881 12.9402 5.78624 13.1843 6.25287C13.4286 6.71951 14.0223 6.90866 14.5107 6.67534L19.0113 4.52494V9.60903C19.0113 10.1307 19.4539 10.5537 19.9998 10.5537C20.5458 10.5537 20.9884 10.1307 20.9884 9.60903V4.52494L25.4891 6.67534C25.9773 6.90866 26.5712 6.71951 26.8153 6.25287C27.0594 5.78624 26.8616 5.21881 26.3732 4.9855L20.4597 2.16004C20.3223 2.09092 20.1658 2.05181 19.9998 2.05181ZM19.9998 37.9485C20.1658 37.9485 20.3223 37.9094 20.4597 37.8404L26.3732 35.0149C26.8616 34.7815 27.0594 34.2141 26.8153 33.7475C26.5712 33.2809 25.9773 33.0918 25.4891 33.325L20.9884 35.4754V30.3914C20.9884 29.8696 20.5458 29.4468 19.9998 29.4468C19.4539 29.4468 19.0113 29.8696 19.0113 30.3914V35.4754L14.5107 33.325C14.0223 33.0918 13.4286 33.2809 13.1843 33.7475C12.9402 34.2141 13.1382 34.7815 13.6264 35.0149L19.5399 37.8404C19.6773 37.9094 19.8338 37.9485 19.9998 37.9485ZM20.9884 23.7788V18.6947L26.3732 16.1219C26.8616 15.8885 27.0594 15.3211 26.8153 14.8545C26.5712 14.3879 25.9773 14.1987 25.4891 14.432L19.9998 17.0548L14.5107 14.432C14.0223 14.1987 13.4286 14.3879 13.1843 14.8545C12.9402 15.3211 13.1382 15.8885 13.6264 16.1219L19.0113 18.6947V23.7788C19.0113 24.3005 19.4539 24.7235 19.9998 24.7235C20.5458 24.7235 20.9884 24.3005 20.9884 23.7788Z" fill="white"/>
</g>
<defs>
<clipPath id="clip0_17_781">
<rect width="40" height="40" fill="white"/>
</clipPath>
</defs>
</svg>
