<svg width="40" height="40" viewBox="0 0 40 40" fill="none" xmlns="http://www.w3.org/2000/svg">
<path d="M40 7.01401C39.9901 5.62877 39.442 4.28727 38.4593 3.29087C37.4469 2.26531 36.0346 1.68206 34.5876 1.6772C25.2415 1.6772 15.8946 1.66747 6.54815 1.66747C5.78271 1.66747 5.01729 1.64804 4.26172 1.79871C2.8 2.09034 1.48643 3.05757 0.735803 4.3213C0.232099 5.16702 0 6.1294 0 7.1015C0 12.9884 0.17284 20.3269 0.17284 25.9747C0.54321 27.3891 1.55555 28.6577 2.87407 29.3285C3.80247 29.8047 4.78025 29.9506 5.81235 29.9506H9.1358V37.358C9.1358 38.1649 10.2519 38.6897 10.8346 38.0434C13.2696 35.3419 15.6936 32.63 18.1481 29.9457H34.4691C35.4321 29.9457 36.3654 29.7367 37.2099 29.2799C38.5334 28.5702 39.5407 27.2627 39.8666 25.8095C39.8666 20.082 40 12.9199 40 7.01401ZM23.4567 21.785H8.49382C7.6642 21.785 7.04691 21.1142 7.01235 20.3269C6.97778 19.5395 7.71853 18.8687 8.49382 18.8687H23.4567C24.2864 18.8687 24.9037 19.5395 24.9382 20.3269C24.9729 21.1142 24.2321 21.785 23.4567 21.785ZM30.8149 12.9535C23.3746 12.9535 15.9341 12.9389 8.49382 12.9389C7.6642 12.9389 7.04691 12.2779 7.01235 11.4905C6.97778 10.7031 7.71853 10.0421 8.49382 10.0421C15.934 10.0421 23.3745 10.0275 30.8149 10.0275C31.6445 10.0275 32.2617 10.7031 32.2962 11.4954C32.3309 12.2779 31.5901 12.9535 30.8149 12.9535Z" fill="white"/>
</svg>
