<svg width="40" height="40" viewBox="0 0 40 40" fill="none" xmlns="http://www.w3.org/2000/svg">
<path fill-rule="evenodd" clip-rule="evenodd" d="M2.37512 19.9061C3.91691 22.3123 12.5 31.4319 20 38.3334C27.5 31.4319 36.0831 22.009 37.6249 19.9061C39.1666 17.8033 40 15.6016 40 13.0048C40 6.74289 34.8512 1.66666 28.5 1.66666C25.1326 1.66666 22.1031 4.32215 20 6.59624C17.8969 4.32215 14.8674 1.66666 11.5 1.66666C5.14873 1.66666 0 6.74289 0 13.0048C0 15.6015 0.833334 17.5 2.37512 19.9061ZM25.651 18.7185H28.5564C29.3088 18.7185 30.0324 18.1564 29.9989 17.5006C29.9654 16.8409 29.3662 16.2788 28.5611 16.2788H24.6972C24.3761 16.2788 24.0742 16.3806 23.825 16.5435C23.5566 16.7186 23.4369 16.9141 23.3074 17.1789C22.8138 18.2053 22.3154 19.2358 21.817 20.2621C21.5161 19.4864 21.2146 18.7109 20.9131 17.9353C20.0004 15.5873 19.0876 13.2393 18.1938 10.8862C18.0165 10.4178 17.5851 10.0756 17.0005 10.0105C16.4732 9.94938 15.8119 10.1571 15.5675 10.5929C15.2109 11.2283 14.8433 11.8606 14.4755 12.4932C13.7484 13.7439 13.0206 14.9956 12.3757 16.2748H9.77223C9.0198 16.2748 8.30091 16.8368 8.33446 17.4966C8.36801 18.1564 8.96708 18.7185 9.77223 18.7185H13.2671C13.7415 18.7185 14.2926 18.4945 14.5084 18.1156C14.8251 17.5476 15.146 16.9805 15.4667 16.4135C15.8315 15.7688 16.1961 15.1243 16.5548 14.4785C17.151 16.0128 17.7435 17.548 18.336 19.0833C18.9819 20.7569 19.6277 22.4306 20.2785 24.103C20.4702 24.5958 21.0166 25.0234 21.6636 24.999C22.3533 24.9769 22.7917 24.6269 23.0486 24.103C23.9137 22.3158 24.7788 20.5245 25.6439 18.7333L25.651 18.7185Z" fill="white"/>
</svg>
