<svg width="119" height="119" viewBox="0 0 119 119" fill="none" xmlns="http://www.w3.org/2000/svg">
<g filter="url(#filter0_dii_21_1024)">
<circle cx="59.5" cy="47.5" r="35.5" fill="url(#paint0_linear_21_1024)"/>
</g>
<path d="M54.2399 48C54.2399 44.8705 56.7754 42.3329 59.904 42.3329C63.0326 42.3329 65.5695 44.8705 65.5695 48C65.5695 51.1295 63.0326 53.6671 59.904 53.6671C56.7754 53.6671 54.2399 51.1295 54.2399 48ZM51.1773 48C51.1773 52.8212 55.0842 56.7293 59.904 56.7293C64.7238 56.7293 68.6308 52.8212 68.6308 48C68.6308 43.1788 64.7238 39.2707 59.904 39.2707C55.0842 39.2707 51.1773 43.1788 51.1773 48ZM66.9369 38.9246C66.9367 39.3281 67.0562 39.7225 67.2801 40.0581C67.5041 40.3937 67.8225 40.6553 68.1951 40.8098C68.5677 40.9644 68.9777 41.0049 69.3734 40.9264C69.769 40.8478 70.1325 40.6537 70.4178 40.3685C70.7031 40.0833 70.8975 39.7199 70.9763 39.3242C71.0552 38.9285 71.015 38.5183 70.8608 38.1455C70.7066 37.7727 70.4453 37.4539 70.11 37.2297C69.7747 37.0054 69.3805 36.8856 68.9771 36.8854H68.9763C68.4356 36.8857 67.9172 37.1005 67.5348 37.4829C67.1524 37.8652 66.9373 38.3838 66.9369 38.9246ZM53.038 61.8376C51.3811 61.7621 50.4805 61.486 49.882 61.2528C49.0885 60.9438 48.5223 60.5758 47.9271 59.9812C47.3319 59.3866 46.9634 58.8208 46.6559 58.0271C46.4226 57.4287 46.1466 56.5276 46.0712 54.8702C45.9889 53.0782 45.9724 52.54 45.9724 48.0001C45.9724 43.4603 45.9902 42.9235 46.0712 41.1301C46.1467 39.4727 46.4247 38.5733 46.6559 37.9731C46.9648 37.1794 47.3327 36.6131 47.9271 36.0177C48.5215 35.4223 49.0871 35.0538 49.882 34.7461C50.4802 34.5127 51.3811 34.2367 53.038 34.1613C54.8294 34.0789 55.3676 34.0624 59.904 34.0624C64.4405 34.0624 64.9792 34.0803 66.7721 34.1613C68.429 34.2368 69.3281 34.5149 69.9281 34.7461C70.7216 35.0538 71.2878 35.4231 71.883 36.0177C72.4782 36.6123 72.8453 37.1794 73.1542 37.9731C73.3875 38.5715 73.6635 39.4727 73.7389 41.1301C73.8212 42.9235 73.8377 43.4603 73.8377 48.0001C73.8377 52.54 73.8212 53.0767 73.7389 54.8702C73.6634 56.5276 73.386 57.4285 73.1542 58.0271C72.8453 58.8208 72.4774 59.3871 71.883 59.9812C71.2886 60.5752 70.7216 60.9438 69.9281 61.2528C69.3299 61.4862 68.429 61.7622 66.7721 61.8376C64.9807 61.92 64.4425 61.9365 59.904 61.9365C55.3655 61.9365 54.8289 61.92 53.038 61.8376ZM52.8973 31.103C51.0881 31.1854 49.8518 31.4723 48.7721 31.8926C47.654 32.3265 46.7074 32.9088 45.7615 33.8534C44.8156 34.7981 44.2351 35.7464 43.8012 36.8649C43.3811 37.9455 43.0943 39.1815 43.0119 40.9912C42.9281 42.8038 42.9089 43.3833 42.9089 48C42.9089 52.6167 42.9281 53.1962 43.0119 55.0088C43.0943 56.8186 43.3811 58.0545 43.8012 59.1351C44.2351 60.2529 44.8158 61.2023 45.7615 62.1466C46.7073 63.0908 47.654 63.6722 48.7721 64.1074C49.8538 64.5277 51.0881 64.8146 52.8973 64.897C54.7103 64.9795 55.2887 65 59.904 65C64.5194 65 65.0987 64.9808 66.9108 64.897C68.7201 64.8146 69.9556 64.5277 71.036 64.1074C72.1534 63.6722 73.1007 63.0912 74.0465 62.1466C74.9924 61.2019 75.5717 60.2529 76.0068 59.1351C76.4269 58.0545 76.7152 56.8185 76.7962 55.0088C76.8786 53.1948 76.8978 52.6167 76.8978 48C76.8978 43.3833 76.8786 42.8038 76.7962 40.9912C76.7138 39.1814 76.4269 37.9448 76.0068 36.8649C75.5717 35.7471 74.9909 34.7996 74.0465 33.8534C73.1021 32.9073 72.1534 32.3265 71.0373 31.8926C69.9556 31.4723 68.72 31.184 66.9121 31.103C65.1 31.0205 64.5207 31 59.9054 31C55.2901 31 54.7103 31.0192 52.8973 31.103Z" fill="white"/>
<defs>
<filter id="filter0_dii_21_1024" x="0" y="0" width="119" height="119" filterUnits="userSpaceOnUse" color-interpolation-filters="sRGB">
<feFlood flood-opacity="0" result="BackgroundImageFix"/>
<feColorMatrix in="SourceAlpha" type="matrix" values="0 0 0 0 0 0 0 0 0 0 0 0 0 0 0 0 0 0 127 0" result="hardAlpha"/>
<feOffset dy="12"/>
<feGaussianBlur stdDeviation="12"/>
<feColorMatrix type="matrix" values="0 0 0 0 0.0316667 0 0 0 0 0.1293 0 0 0 0 0.2 0 0 0 0.25 0"/>
<feBlend mode="normal" in2="BackgroundImageFix" result="effect1_dropShadow_21_1024"/>
<feBlend mode="normal" in="SourceGraphic" in2="effect1_dropShadow_21_1024" result="shape"/>
<feColorMatrix in="SourceAlpha" type="matrix" values="0 0 0 0 0 0 0 0 0 0 0 0 0 0 0 0 0 0 127 0" result="hardAlpha"/>
<feOffset dy="4"/>
<feGaussianBlur stdDeviation="2"/>
<feComposite in2="hardAlpha" operator="arithmetic" k2="-1" k3="1"/>
<feColorMatrix type="matrix" values="0 0 0 0 0.183667 0 0 0 0 0.74994 0 0 0 0 1 0 0 0 1 0"/>
<feBlend mode="normal" in2="shape" result="effect2_innerShadow_21_1024"/>
<feColorMatrix in="SourceAlpha" type="matrix" values="0 0 0 0 0 0 0 0 0 0 0 0 0 0 0 0 0 0 127 0" result="hardAlpha"/>
<feOffset dy="-4"/>
<feGaussianBlur stdDeviation="2"/>
<feComposite in2="hardAlpha" operator="arithmetic" k2="-1" k3="1"/>
<feColorMatrix type="matrix" values="0 0 0 0 0.126667 0 0 0 0 0.5172 0 0 0 0 0.8 0 0 0 1 0"/>
<feBlend mode="normal" in2="effect2_innerShadow_21_1024" result="effect3_innerShadow_21_1024"/>
</filter>
<linearGradient id="paint0_linear_21_1024" x1="59.5" y1="12" x2="59.5" y2="83" gradientUnits="userSpaceOnUse">
<stop stop-color="#2DB9FF"/>
<stop offset="1" stop-color="#228AD6"/>
</linearGradient>
</defs>
</svg>
