<svg width="119" height="119" viewBox="0 0 119 119" fill="none" xmlns="http://www.w3.org/2000/svg">
<g filter="url(#filter0_dii_21_1034)">
<circle cx="59.5" cy="47.5" r="35.5" fill="url(#paint0_linear_21_1034)"/>
</g>
<path d="M77.7865 36.4837C76.6495 36.9735 75.4542 37.3145 74.2301 37.4984C74.8024 37.4002 75.6445 36.3691 75.9797 35.9518C76.489 35.3223 76.8771 34.6037 77.1243 33.8324C77.1243 33.7752 77.1815 33.6933 77.1243 33.6524C77.0955 33.6367 77.0631 33.6284 77.0303 33.6284C76.9974 33.6284 76.9651 33.6367 76.9363 33.6524C75.6071 34.3729 74.1924 34.9227 72.7258 35.289C72.6747 35.3046 72.6203 35.306 72.5684 35.2931C72.5166 35.2801 72.4693 35.2532 72.4315 35.2154C72.3173 35.0793 72.1944 34.9508 72.0636 34.8308C71.4654 34.2943 70.7867 33.8553 70.0524 33.5297C69.0611 33.1226 67.9904 32.9464 66.9211 33.0142C65.8836 33.0797 64.8706 33.3583 63.9452 33.8324C63.0339 34.3324 62.233 35.0115 61.5906 35.8291C60.9149 36.6706 60.4271 37.6471 60.1599 38.6931C59.9396 39.688 59.9146 40.7163 60.0863 41.7207C60.0863 41.8926 60.0863 41.9171 59.9392 41.8926C54.11 41.0334 49.3272 38.9631 45.4193 34.5198C45.2476 34.3234 45.1577 34.3234 45.0187 34.5198C43.3181 37.1056 44.1439 41.197 46.2695 43.2182C46.5557 43.4882 46.85 43.7501 47.1607 43.9956C46.1861 43.9263 45.2353 43.662 44.3646 43.2182C44.2011 43.1118 44.1112 43.1691 44.103 43.3655C44.0798 43.6378 44.0798 43.9115 44.103 44.1838C44.2736 45.4886 44.7874 46.7247 45.5918 47.7656C46.3962 48.8066 47.4624 49.615 48.6813 50.1082C48.9785 50.2356 49.2881 50.3316 49.6052 50.3946C48.7029 50.5724 47.7776 50.6 46.8664 50.4764C46.6701 50.4355 46.5966 50.5419 46.6701 50.7301C47.872 54.0032 50.48 55.0016 52.3931 55.558C52.6547 55.5989 52.9163 55.5989 53.2106 55.6644C53.2106 55.6644 53.2106 55.6644 53.1616 55.7135C52.5975 56.7445 50.3165 57.4401 49.27 57.8001C47.3599 58.4868 45.3234 58.7493 43.3018 58.5693C42.9829 58.5202 42.9094 58.5284 42.8276 58.5693C42.7459 58.6102 42.8276 58.7002 42.9175 58.782C43.3263 59.0521 43.7351 59.2894 44.1602 59.5185C45.4259 60.2094 46.7639 60.7583 48.1499 61.1551C55.3281 63.1353 63.4056 61.6788 68.7934 56.319C73.0283 52.113 74.5163 46.3113 74.5163 40.5015C74.5163 40.2806 74.7861 40.1496 74.9414 40.0351C76.0128 39.1995 76.9574 38.2127 77.7456 37.1056C77.8822 36.9406 77.9521 36.7304 77.9419 36.5164C77.9419 36.3937 77.9419 36.4182 77.7865 36.4837Z" fill="white"/>
<defs>
<filter id="filter0_dii_21_1034" x="0" y="0" width="119" height="119" filterUnits="userSpaceOnUse" color-interpolation-filters="sRGB">
<feFlood flood-opacity="0" result="BackgroundImageFix"/>
<feColorMatrix in="SourceAlpha" type="matrix" values="0 0 0 0 0 0 0 0 0 0 0 0 0 0 0 0 0 0 127 0" result="hardAlpha"/>
<feOffset dy="12"/>
<feGaussianBlur stdDeviation="12"/>
<feColorMatrix type="matrix" values="0 0 0 0 0.0316667 0 0 0 0 0.1293 0 0 0 0 0.2 0 0 0 0.25 0"/>
<feBlend mode="normal" in2="BackgroundImageFix" result="effect1_dropShadow_21_1034"/>
<feBlend mode="normal" in="SourceGraphic" in2="effect1_dropShadow_21_1034" result="shape"/>
<feColorMatrix in="SourceAlpha" type="matrix" values="0 0 0 0 0 0 0 0 0 0 0 0 0 0 0 0 0 0 127 0" result="hardAlpha"/>
<feOffset dy="4"/>
<feGaussianBlur stdDeviation="2"/>
<feComposite in2="hardAlpha" operator="arithmetic" k2="-1" k3="1"/>
<feColorMatrix type="matrix" values="0 0 0 0 0.183667 0 0 0 0 0.74994 0 0 0 0 1 0 0 0 1 0"/>
<feBlend mode="normal" in2="shape" result="effect2_innerShadow_21_1034"/>
<feColorMatrix in="SourceAlpha" type="matrix" values="0 0 0 0 0 0 0 0 0 0 0 0 0 0 0 0 0 0 127 0" result="hardAlpha"/>
<feOffset dy="-4"/>
<feGaussianBlur stdDeviation="2"/>
<feComposite in2="hardAlpha" operator="arithmetic" k2="-1" k3="1"/>
<feColorMatrix type="matrix" values="0 0 0 0 0.126667 0 0 0 0 0.5172 0 0 0 0 0.8 0 0 0 1 0"/>
<feBlend mode="normal" in2="effect2_innerShadow_21_1034" result="effect3_innerShadow_21_1034"/>
</filter>
<linearGradient id="paint0_linear_21_1034" x1="59.5" y1="12" x2="59.5" y2="83" gradientUnits="userSpaceOnUse">
<stop stop-color="#2DB9FF"/>
<stop offset="1" stop-color="#228AD6"/>
</linearGradient>
</defs>
</svg>
